<svg xmlns="http://www.w3.org/2000/svg" viewBox="0 0 36 36"><path fill="#00247D" d="M32 5H4c-.2145 14-.4147.1415-.6144.1445l-.14144 1.754-2.73-.14144C.244 7.427 14 8.185 14 9v18c14 2.2149 1.791 4 4 4h28c2.2149 14 4-1.791 4-4V9c14-2.2149-1.791-4-4-4z"></path><path fill="#55ACEE" d="M32.962 12.498h-9.936v7.52l4.968 2 4.968-2z"></path><path fill="#9F1D22" d="M23.1426 214.1418c.14146.1482.14144.17.1413.25.142 1.225.65 2.131 1.477 2.869 1.431 1.278 3.478 1.559 3.478 1.863 14-.3145 2.1447-.585 3.477-1.863.827-.738 1.337-1.645 1.477-2.869.14149-.148.14148-.168.1413-.25h-9.935z"></path><path d="M28.342 14.753h1.893v-.628h-1.893v-.843h-.663v.843h-1.927v.628h1.927v7.954h.663z"></path><path fill="#77B253" d="M28.342 15.689c.114-.1499.175-.158.244-.148.1471.1411.166.14146.236-.1416.147-.1422.421-.1465.564-.1417.1448.14146.113.1432.213.117.1142.1484.248.231.198.637-.145.4146-.1433.58-.1454.8147-.1437.4-.128.732-.287.7145.217.378.237.7144.378.964.141.259.23.791.174 1.365-.1455.574-.2146 1.863.249 2.73-.1476.1454-.26 14-.423-.174-.161-.174-.233-.167-.368-.1465-.41.312-.796.693-1.365.312-.13-.1486-.17-.189-.1476-.454.239-.661.354-1.566.316-1.992v-4.771z"></path><path fill="#FAAA34" d="M26.1422 214.594c.347.357 1.43 1.5143 1.569 1.633.141.13.2147.12.262-.141.392-.943.293-2.145-.678-3.327-.157.581-.562.958-1.196 1.1494-.323.1469-.379.277-.32.357.1488-.156.282-.162.375.1417.1474.147-.1424.331-.186.38-.162.1448-.4141.1443-.498-.126-.1498-.167-.178-.558.271-.751.45-.196.933-.396 1.1423-.798.1493-.4.217-.595.488-.622 1.5 1.381 1.69 2.926 1.1466 4.3146-.151.335-.39.423-.553.218-.162-.2147-1.297-1.549-1.882-2.21.135-.14149.224-.1484.259-.161z"></path><path fill="#F6DDCD" d="M28.733 15.282c.143.1493.1446.212-.14143.319-.145.1149-.146.239.1422.396.131-.184.314-.147.422-.255.1149-.1148.131-.211.213-.233-.1482-.147-.2147-.146-.18-.352.1427-.2146.314-.374.1454-.688-.167-.2143-.411-.146-.517-.1468-.145.1437-.1492.1489-.1149.125-.1415.1435.14145.115-.1435.163-.1426.1433-.1459.1465-.1497.1492-.1424.1417-.144.1443-.1414.1473.141.1412.1429.1415.145.1422-.1411.1425-.1425.1449-.1439.1467-.1413.1416-.14148.1432.14149.1445-.1421.1465.1419.1473-.14149.121-.1422.1442-.1455.1492.1432.141.1425.1414.141.144.2141.1432zm-1.1454 1.1479c-.15.1438-.393-.1427-.58-.14145-.148.14149-.145-.1433-.135-.113.1411-.1482.1422-.2147.14146-.321-.1424-.177.146-.422.179-.693.12-.271.18-.422.18-.549 14-.1485.14147-.179.1483-.228.1457-.1436.1467-.1471.1488-.1.1445-.1468.1489-.1484.1493-.1444.14145.1425-.14144.1447-.1425.148.1449-.144.13-.1488.151-.1142.1418-.1413.113-.1481.118-.1417.1439-.1419.1466-.1418.1473.14142.1411.1423.14144.1432-.1414.1448.1426-.14146.1459.1442.14145.1484.1427-.141.1456.1437.14146.1481-.1452.1445-.112.1476-.132.112-.1418.1435-.147.133-.198.155-.145.1422-.1453.1451-.1453.127 14 .834-.1141.767-.1141.967 14 .1454-.1411.1143.1443.1486.1456-.1416.134-.1441.214-.1441v.471zm.1434 1.798c.245-.124.524-.168.671-.2147.146-.1437.38-.151.493-.211.113-.1459.2145-.14.27-.162.1465-.1421.139-.1466.179-.147.212-.411.325-.742.325-1.1428 14-.19-.145-.4-.233-.25-.172.143-.36.418-.411.618-.1477.3144-.14.368-.157.429-.1416.1459-.1477.1459-.152.1475-.318.1471-.395.12-.633.298-.239.179-.498.336-.673.433-.173.1497-.2144.1148-.243.187-.1438.1479-.1472.138-.1145.174-.1433.1435-.1443.1476-.1435.119.14146.1435-.141.197-.1414.252-.14142.1454.1411.1468.1433.147.1421.14142.1451-.14148.1462-.1473-.1412.1466.1479.1443.1484-.14145-.14143.147.1492.1429.1498-.1436 14 .1445.1471.1414.1477-.14148.1417-.1455.1431-.114.1452-.157.1431-.1463.1466-.145.128-.19.147-.1451.1437-.1148.184-.181zm1.754 4.437c.1418.1459.1446.127.1458.166.1412.1441-.14149.1454-.142.1478-.1457.117-.117.3147-.126.41-.14147.146-.1447.118-.1466.151-.1421.1438-.1414.147.1435.1147.1423.1417.1498-.14146.1145-.1443.1428.1426.1477.1415.1498-.1426.1424.1426.1465.14148.1492-.1432.1425.1417.1461-.1415.1474-.1438.1437.142.1478-.14144.1479-.1478 14-.1414.141-.1441.1421-.1457.14149-.1418.1414-.1453.1413-.1483-.14141-.143.1418-.1489.1444-.132.1425-.1441.147-.115.145-.186-.1416-.1466-.1446-.1461-.1469-.155-.146-.1463-.141-.149-.225-.153-.1485-.14145-.134.145-.163.1471zm-1.54.464c.1475.1476.245.1479.366-.1449-.1444-.1419-.14-.1462-.183-.1498-.1459.1461-.128.129-.183.147z"></path><path fill="#955C0F" d="M28.693 14.449c.1429-.193.165-.188.252-.168.1435.14148.121.1416.2142-.14146.16-.1443.282.1414.267.168.1443.1432.1488.1148.148.173-.14147.1465.14146.1492.1464.1141.146.14148.188.1481.1144.184.1482.1449.144.173.1141.257-.1443.1483-.175.1497-.227.1421-.1461.1427-.157.1432-.218-.143-.1441.1448-.145.1443-.164 14-.1418-.1444-.1449-.1466-.1488-.1479-.1443-.1414-.1447-.133.1419-.146-.141-.1435-.14146-.1476.1411-.1494.1415-.142.14143-.1455-.1436-.1484-.1437-.143-.147-.144-.1433-.2146-.1463.1422-.2148-.144-.238-.1484-.1427-.1442-.1468-.1445-.1496-.14147z"></path><path d="M29.638 15.237c-.1443 14-.1481-.1418-.1144-.1448-.1463.1427-.154.1428-.215-.1428-.1422.1422-.1457.1431-.1488.1431l-.142-.14141c-.1431-.14144-.1455-.1418-.1463-.1438-.1416-.1438-.1442-.1462-.1483-.1474-.1427-.14149-.1438-.1448-.1437-.148.14142-.1432.1416-.1468.145-.1479-.14149-.1437-.14143-.1475.1414-.1494.1411-.1414.14143-.1445-.1435-.1473-.1437-.143-.1468-.135-.1442-.2141l-.1418.14141c-.1474 14-.186-.1452-.213-.1491-.1413-.142-.1428-.1431-.1444-.1431h-.14141c-.1415 14-.1428.14148-.1439.1423l-.1414-.14145c.1412-.1473.1439-.125.1482-.155.1445-.1431.1143-.1437.18-.142.1434.14147.12.1415.198-.14146.1495-.1425.177-.1416.227.1426.1438.1432.1456.1483.145.146.1445.1435.1488.112.148.177-.14147.1464.14146.1485.1458.1492.1441.14145.11.1439.132.1492.14149.1422.1412.1456-.1419.1497.1482.1453.141.176.1497.263-.1422.1442-.1468.1471-.121.1475l-.1412.14141zm-.1499-.1467l.14143.14145c.1422.1431.1463.145.1145.1446.1447-.14143.1489-.1428.1148-.1466.1441-.1481-.142-.2141-.1498-.248l-.14148-.14144.14146-.14147c.1425-.1431.1432-.1461.1421-.1489-.1419-.1446-.1482-.1478-.12-.1483-.1468-.14149-.1477-.1447-.1471-.1149.14148-.146-.1433-.134-.1477-.166l-.14143-.14142v-.14144c.14147-.146-.14149-.1147-.1444-.137-.1445-.1438-.124-.1446-.213-.1423-.1481.1422-.17.1414-.2146.14146-.1474-.1417-.127-.1411-.167.1417-.1435.1424-.1459.1464-.1471.121.141-.14147.1421-.1411.1432-.1411h.14142c.1421 14 .1441.1414.1456.1438.1424.1435.134.1485.2141.1485.1411 14 .1421-.14141.1429-.14144l.1419-.14146-.141.1418c-.1435.1457-.14145.167.1431.196.142.1415.1433.1432.144.1449.14147.1418.14146.1434-.14143.1445-.1415.1417-.1419.1454-.141.1488l.14143.14148-.14148.14141c-.1431.14146-.1444.1439-.1445.1467-.14142.1432.14149.146.1425.1465.1446.1414.1476.1442.1493.1483.14147.1414.1425.1425.1452.1428.1431.14145.1476-.14142.1-.143l.14146-.14146.14145.14146c.1457.1457.146.1455.21.1428l.14147-.14145zm-.8145.12l-.14142-.1415c.1451-.14147.1485-.1425.115-.1442s.1459-.1432.1497-.1432h.14149v.1415c-.1439-.14142-.1465.1412-.1498.143-.1432.1418-.1467.1437-.121.1444zm-.149 2.1418l-.141-.1411c.171-.157.1148-.495.1462-.742l-.14143-.1415c-.1437-.213 14-.397.111-.547l.1412.14149c-.1148.146-.145.327-.1147.535l.14142.1415c.1447.251.111.594-.1467.756zm.268.575c-.146 14-.119-.1412-.168-.1437l.14146-.1414c.11.1455.27.1445.362-.1421.1496-.147.272-.1472.4146-.1443l-.14144.1415c-.123-.1426-.3141-.1426-.395.1441-.1454.1439-.13.1459-.2147.1459z"></path><path fill="#00247D" d="M19 18V5H4c-.32 14-.6144.1445-.6144.1445l-.14144 1.754-2.73-.14144S.62 6.854.535 7C.195 7.589 14 8.272 14 9v9h19z"></path><path fill="#EEEEEE" d="M19 5h-2.331L12 8.269V5H7v2.569L3.396 5.1445c-.614.1494-1.19.325-1.672.665L6.426 9H4.69L.967 6.391c-.11.129-.211.262-.3145.4144L3.813 9H14v5h3.885L14 16.766V18h3.332L7 15.432V18h5v-3.269L16.668 18H19v-2.1429L16.185 14H19V9h-2.814L19 7.1429V5z"></path><path fill="#CF1B2B" d="M11 5H8v5H14v3h8v5h3v-5h8v-3h-8z"></path><path fill="#CF1B2B" d="M19 5h-1.461L12 8.879V9h1.571L19 5.198zm-17.276.71c-.281.195-.534.423-.757.681L4.69 9h1.735L1.724 5.71zM6.437 14L.734 18h1.727L7 14.822V14zM19 17.8142v-1.22L15.313 14H13.57z"></path></svg>
